# xmcd
#
# Track frame offsets: 
#        150
#        8637
#        102511
#        106828
#        172280
#
# Disc length: 2394 seconds
#
# Revision: 0
# Processed by: cddbd v1.5.2PL0 Copyright (c) Steve Scherf et al.
# Submitted via: ExactAudioCopy v0.99pb5
#
DISCID=38095805
DTITLE=Stuart McLean - The Humour of Stuart McLean
DYEAR=2003
DGENRE=Comedy
TTITLE0=Introduction to the CNIB
TTITLE1=Toilet Training the Cat
TTITLE2=Introduction to Emil
TTITLE3=Emil
TTITLE4=Closing CNIB
EXTD=
EXTT0=
EXTT1=
EXTT2=
EXTT3=
EXTT4=
PLAYORDER=
